<?xml version="1.0" encoding="UTF-8" standalone="no"?>
<!DOCTYPE svg PUBLIC "-//W3C//DTD SVG 1.1//EN" "http://www.w3.org/Graphics/SVG/1.1/DTD/svg11.dtd">
<svg width="100%" height="100%" viewBox="0 0 1890 1890" version="1.1" xmlns="http://www.w3.org/2000/svg" xmlns:xlink="http://www.w3.org/1999/xlink" xml:space="preserve" xmlns:serif="http://www.serif.com/" style="fill-rule:evenodd;clip-rule:evenodd;stroke-linejoin:round;stroke-miterlimit:1.41421;">
    <g transform="matrix(1.33333,0,0,1.33333,0,0)">
        <path d="M193.79,1018.64C175.353,987.805 164.737,951.646 164.737,912.994C164.737,800.22 255.111,708.661 366.427,708.661C397.707,708.661 427.332,715.891 453.764,728.789C454.439,614.445 548.582,521.819 664.443,521.819C780.722,521.819 875.126,615.113 875.126,730.026C875.126,741.861 874.125,753.467 872.201,764.765C888.202,764.822 903.806,766.334 918.842,769.155C930.598,677.275 1021.13,605.703 1130.92,605.703C1248.68,605.703 1344.29,688.048 1344.29,789.475C1344.29,824.625 1332.81,857.483 1312.9,885.417C1332.84,914.638 1344.29,948.755 1344.29,985.183C1344.29,996.589 1343.17,1007.77 1341.02,1018.64L193.79,1018.64Z" style="fill:rgb(3,131,82);"/>
        <path d="M738.005,1018.64L193.79,1018.64C175.353,987.805 164.737,951.646 164.737,912.994C164.737,800.22 255.111,708.661 366.427,708.661C397.707,708.661 427.332,715.891 453.764,728.789C454.439,614.445 548.582,521.819 664.443,521.819C690.313,521.819 715.1,526.437 738.005,534.883L738.005,1018.64Z" style="fill:rgb(4,149,94);"/>
    </g>
</svg>
