<?xml version="1.0"?>
<svg xmlns:rdf="http://www.w3.org/1999/02/22-rdf-syntax-ns#" xmlns="http://www.w3.org/2000/svg" xmlns:cc="http://creativecommons.org/ns#" xmlns:dc="http://purl.org/dc/elements/1.1/" xmlns:svg="http://www.w3.org/2000/svg" id="svg2" viewBox="0 0 128 128" version="1.0">
  <defs id="defs4">
    <filter id="filter3443" y="-.32663" width="1.2503" x="-.12514" height="1.6533">
      <feGaussianBlur id="feGaussianBlur3445" stdDeviation="1.9634296"/>
    </filter>
  </defs>
  <g id="layer1">
    <g id="g3779" transform="translate(-387.04 -13.751)">
      <g id="g2629">
        <path id="path3692" filter="url(#filter3443)" fill-rule="evenodd" fill-opacity=".7284" d="m443.83 124.98c-1.87 0.61-6.11-0.64-8.89-1.33-2.36-0.59-4.73 1.17-5.78 2.22-1.42 1.42-1.73 4.22-1.34 5.78 0.84 3.33 5.39 3.11 7.56 2.67 2.01-0.4 4.25 1.29 6.23 1.78 2.28 0.57 4.26 0.89 7.12 0.89 2.9 0 4.68 1.44 7.56 0 2.23-1.11 4.29-0.77 6.22-2.22 1.52-1.14 2.23-3.13 2.67-4.89 0.79-3.14-1.87-3.61-3.56-4.45-2.16-1.08-5.9-0.42-7.56 0-1.77 0.44-3.31-2.23-5.78-2.23-2 0-1.06 1.78-4.45 1.78z"/>
        <path id="path3694" d="m442.6 123.09c-2.35 3.09-5.54 3.83-8.73 4.31-0.6 0.72-0.33 0.29-0.28 1.17 0.23 0.77 0.51 1.51 0.7 2.3 2.76 0.26 5.8 1.9 8.67 0.98 3.02 0.04 6.07-1.02 8.57-2.84 0.58-1.71-0.04-4.02-0.18-5.92-2.78 0.88-5.95 0.73-8.75 0z" fill-rule="evenodd" stroke="#0e0300" stroke-width="1px" fill="#2b1100"/>
        <path id="path3696" stroke="#0e0300" stroke-width="1px" fill="none" d="m434.29 129.37c3.25-0.56 6.5 1.57 9.89 1.12 3.14-0.1 4.78-2.39 7.08-2.54"/>
        <path id="path3698" d="m453.83 123.62c-2.33 3.42-6.22 4.64-8.84 5.53-0.43 0.9-0.41 0.56-0.53 1.54 0.14 1.3 0.9 2.11 1.85 2.92 2.57 0.99 5.43 0.22 8.05-0.27 2.29-0.08 5-0.6 6.6-2.35 2.47-2.31 2.05-4.51 1.79-7.72-2.97 0.22-5.94 0.35-8.92 0.35z" fill-rule="evenodd" stroke="#0e0300" stroke-width="1px" fill="#2b1100"/>
        <path id="path3700" d="m435.54 84.721c-3.4 4.522-0.07 8.06-0.5 11.875-0.78 1.642-1.24 2.713-2.62 3.874-1.52 0.07-2.62 0.84-3 2.13 0.88 0.89 2.15 0.58 3.37 0.5 0.36 1.36-1.62 3.13-1.75 4.75 1.78 2.12 3.27-1.4 3.38-3 0.21 1.54-0.66 4.06-0.5 5.12 2.03 0.4 2.74-3.01 2.75-4.75-0.04 1.9-0.99 3.81 1.25 3.75 1.53-1.13 1.17-3.24 1.37-5 0.6-2.77 1.73-5.401 2-8.249-0.3-4.181 1.7-9.374-0.12-13.25-2.69-1.349-3.63 1.152-5.63 2.25z" fill-rule="evenodd" stroke="#3f2d10" stroke-width="1px" fill="#fca"/>
        <path id="path3702" d="m442.22 68.666c-2.7 2.796-5.37 5.348-6.53 8.999-1.45 2.576-2.06 5.495-2.38 8.491 3.97 0.748 7.98-0.038 11.92 0.502 1.8-4.781 1.49-10.026 1.59-15.063" fill-rule="evenodd" stroke="#4d4d4d" stroke-width="1px" fill="#999"/>
        <path id="path3704" d="m453.67 101.47c-0.15 0.78-2.02 1.8-1.75 3.13-0.49 3.51 1.53 7.2 1.25 11.5 0.51 2.2-1.89 5.82-0.38 7.37 2.63 1.99 9.17 1.9 10.63-0.62-1.02-3.86-2.1-7.5-1.5-11.5 0.05-3.79 0.76-7.46 0.62-11.25-2.17-0.805-7.51-0.225-8.87 1.37z" fill-rule="evenodd" stroke="#00192e" stroke-width="1px" fill="#00325c"/>
        <path id="path3706" d="m442.54 101.35c-0.14 0.78-1.89 2.92-1.62 4.25 0.94 2.79 2.07 5.28 1.37 8.12 0.02 2.79-3 7.83-1 9.88 2.85 1.12 7.83 1.47 10.25-1-1.24-3.86-1.34-7.37-0.75-11.38 0.03-3.8 0.77-7.43 0.63-11.249-2.17-0.801-7.51-0.221-8.88 1.379z" fill-rule="evenodd" stroke="#00192e" stroke-width="1px" fill="#00325c"/>
        <path id="path3708" d="m467.45 104.62c-2.8-3.46-0.87-8.643-0.51-12.607-1.23-4.957 1.96-10.247 0.9-15.202-0.46-3.106-1.49-5.903-3.05-8.611-1.79-2.413-4.17-3.786-7.2-3.941-3.88 0.57-7.81 0.045-11.67 0.884-2.84 1.239-4.81 3.291-5.12 6.364-0.14 2.774-0.58 4.899-1.87 7.403-0.38 4.452-1.86 8.846-1.23 13.31 0.89 5.194-0.71 7.83-0.14 13.01 4.49-2.57 10.29 1.3 15.38 0.73 4.27-1.53 11.86 1.9 14.51-1.34z" fill-rule="evenodd" stroke="#4d4d4d" stroke-width="1px" fill="#999"/>
        <path id="path3710" d="m466.42 93.846c0.55 3.261 0.37 6.654-1.13 9.624-1.1 1.13-2.69-0.51-3.5 1.13 0.33 1.41 1.69 1.77 3 2.12-0.94 1.86-2.74 3.42-0.87 5.5 1.21-0.62 2.04-2.02 2.37-3.25 0.14 1.44-1.07 4.29 1.63 3.13 1.31-0.99 0.67-2.42 0.75-3.88 1.04 1.62 1.36 4.06 2.75 1.25 0.14-1.26-0.47-2.13-1.13-3.12-0.17-1.27 0.28-2.6 0.5-3.88 1.59-2.693 2.67-5.443 3.13-8.499-1.82-2.386-0.6-5.983-2.13-8.375-0.43-1.071-0.83-1.989-1.5-2.875-2.81-0.805-5.1 0.014-6.37 2.625-1.78 3.531 0.02 6.209 2.5 8.5z" fill-rule="evenodd" stroke="#3f2d10" stroke-width="1px" fill="#fca"/>
        <path id="path3712" d="m458.13 73.702c0.12 2.541-0.11 5.245 0.71 7.623 0.67 2.435 1.73 4.542 1.76 7.049 4.2-0.446 8.7-2.212 12.9-3.535-0.44-2.071-1.01-4.103-1.41-6.187-0.67-2.744-1.86-4.972-3.07-7.343-1.47-2.066-4.48-2.417-7.01-1.673" fill-rule="evenodd" stroke="#4d4d4d" stroke-width="1px" fill="#999"/>
        <path id="path3720" d="m445.24 67.239c-4.47 12.204 10.04 3.448 13.4-1.289-1.22-2.478-2.08-5.453-4.75-6.75-2.27-0.259-4.47 0.371-6.62 1-1.74 1.355-2.42 5.298-2.03 7.039z" fill-rule="evenodd" stroke="#3f2d10" stroke-width="1px" fill="#fca"/>
        <path id="path3714" d="m447.99 21.886c-10.45-0.061-14.58 6.834-14.72 15.803 0 1.876 0.87 5.569 1.33 7.428-0.22 3.662-1.12 6.429-0.04 10.003 1.26 5.057 4.65 7.749 9.54 8.839 4.35-0.085 9.18-2.185 12.44-5.221 4.66-3.814 5.44-10.018 7.15-15.66 0.61-5.389-0.38-10.155-1.91-15.181-2.13-5.501-8.58-6.781-13.79-6.011z" fill-rule="evenodd" stroke="#3f2d10" stroke-width="1px" fill="#fca"/>
        <path id="path3716" d="m432.06 29.64c-0.94-10.602 27.9-15.944 30.16-6.004 9.86 3.145 2.89 21.403 0.59 27.599-1.37-0.014-2.93-0.183-2.71-0.873 2.8-8.77 3.38-9.748-0.44-11.505-1.93-0.483-2.58 0.997-4.24 1.414-3.53-2.268 0.04-9.248-5.66-11.667-2.78 1.124-6.31 2.859-9.19 0-2.47 0-6.41 1.876-8.51 1.036z" fill-rule="evenodd" stroke="#603b00" stroke-width="1px" fill="#a05a2c"/>
        <path id="path3724" d="m442.44 38.191c-1.37 2.998-0.31 4.756 2.62 4.323 0.9 0.395 2.14-1.796 1.71-3.25-0.8-2.498-2.49-3.916-4.33-1.073z" fill-rule="evenodd" stroke="#333" stroke-width="1px" fill="#fff"/>
        <path id="path3726" d="m436.07 36.691c-2.36 0.528-3.09 1.826-2.63 4.5 2.72 5.018 7.51-1.702 2.63-4.5z" fill-rule="evenodd" stroke="#333" stroke-width="1px" fill="#fff"/>
        <path id="path3728" d="m438.07 43.566c-0.63 3.613-3.24 3.033-3.13 7.125 2.98-0.601 4.94 0.156 5.25-2" fill-rule="evenodd" stroke="#3f2d10" stroke-width="1px" fill="#fca"/>
        <path id="path3730" d="m457.44 40.441c5.86-2.33 4.83 6.354 0.5 5.5" fill-rule="evenodd" stroke="#3f2d10" stroke-width="1px" fill="#fca"/>
        <path id="path3732" d="m458.57 41.816c0.85-1.493 3.09 1.179 0 2.625" fill-rule="evenodd" stroke="#3f2d10" stroke-width="1px" fill="#fca"/>
        <path id="path3734" stroke="#3f2d10" stroke-width="1px" fill="none" d="m436.69 55.691c0.21 3.321 6.64 4.251 10.13-2.375"/>
        <path id="path3736" stroke-width="1px" stroke="#000" fill-rule="evenodd" d="m443.33 39.057c0.38-0.357-1.25-0.647-1.13 1.375 0.1 1.567 1.75 1.065 2.38 0.625 1.27-0.885-0.64-2.313-1.25-2z"/>
        <path id="path3738" stroke-width="1px" stroke="#000" fill-rule="evenodd" d="m434.68 39.276c0.46-0.948-1.8-0.937-1.12 1.25 0.46 1.51 2.16 0.619 2.25 0.5 0.93-1.21-0.06-3.102-1.13-1.75z"/>
        <path id="path3740" d="m441.18 82.698c-1.6 10.295 1.69 9.181 7.56 10.089 6.73 0.084 4.81-8.285 3.13-12.49-3.82-3.272-8.05-1.065-10.69 2.401z" fill-rule="evenodd" stroke="#9f854c" stroke-width="1px" fill="#ff0"/>
        <path id="path3748" stroke="#0e0300" stroke-width="1px" fill="none" d="m445.16 131.75c3.13 0.67 6.53 1.02 8.95 0.06 2.92-0.38 5.52-0.99 8.2-3.86"/>
        <path id="path3191" d="m442.35 87.447l8.49 0.433s-5.8 5.889-8.49-0.433z" fill-rule="evenodd" stroke="#000" stroke-width="1px" fill="#fff"/>
        <path id="path3193" transform="matrix(1 0 0 1.2963 385.63 -6.7741)" d="m60.016 69.846a1.2124 1.1691 0 1 1 -2.425 0 1.2124 1.1691 0 1 1 2.425 0z"/>
        <path id="path3195" transform="matrix(1 0 0 1.2963 390.56 -6.8607)" d="m60.016 69.846a1.2124 1.1691 0 1 1 -2.425 0 1.2124 1.1691 0 1 1 2.425 0z"/>
      </g>
    </g>
  </g>
  <metadata>
    <rdf:RDF>
      <cc:Work>
        <dc:format>image/svg+xml</dc:format>
        <dc:type rdf:resource="http://purl.org/dc/dcmitype/StillImage"/>
        <cc:license rdf:resource="http://creativecommons.org/licenses/publicdomain/"/>
        <dc:publisher>
          <cc:Agent rdf:about="http://openclipart.org/">
            <dc:title>Openclipart</dc:title>
          </cc:Agent>
        </dc:publisher>
        <dc:title>Comic characters: Boy</dc:title>
        <dc:date>2009-03-05T14:03:02</dc:date>
        <dc:description>Comic characters: a happy boy</dc:description>
        <dc:source>http://openclipart.org/detail/21853/comic-characters:-boy-by-nicubunu</dc:source>
        <dc:creator>
          <cc:Agent>
            <dc:title>nicubunu</dc:title>
          </cc:Agent>
        </dc:creator>
        <dc:subject>
          <rdf:Bag>
            <rdf:li>cartoon</rdf:li>
            <rdf:li>character</rdf:li>
            <rdf:li>clip art</rdf:li>
            <rdf:li>clipart</rdf:li>
            <rdf:li>comic</rdf:li>
            <rdf:li>funny</rdf:li>
            <rdf:li>guy</rdf:li>
            <rdf:li>human</rdf:li>
            <rdf:li>image</rdf:li>
            <rdf:li>media</rdf:li>
            <rdf:li>people</rdf:li>
            <rdf:li>png</rdf:li>
            <rdf:li>public domain</rdf:li>
            <rdf:li>svg</rdf:li>
          </rdf:Bag>
        </dc:subject>
      </cc:Work>
      <cc:License rdf:about="http://creativecommons.org/licenses/publicdomain/">
        <cc:permits rdf:resource="http://creativecommons.org/ns#Reproduction"/>
        <cc:permits rdf:resource="http://creativecommons.org/ns#Distribution"/>
        <cc:permits rdf:resource="http://creativecommons.org/ns#DerivativeWorks"/>
      </cc:License>
    </rdf:RDF>
  </metadata>
</svg>
